<svg width="32" height="33" viewBox="0 0 32 33" fill="none" xmlns="http://www.w3.org/2000/svg">
<g clip-path="url(#clip0)">
<path fill-rule="evenodd" clip-rule="evenodd" d="M16.2068 0.251217L16.4126 0.254827L16.6184 0.260844L16.823 0.270471L17.0275 0.282505L17.2309 0.295742L17.4331 0.312589L17.6352 0.331842L17.8362 0.353503L18.0372 0.378773L18.2369 0.405247L18.4355 0.434128L18.634 0.465415L18.8314 0.499109L19.0275 0.536414L19.2237 0.574921L19.4174 0.615835L19.6124 0.659156L19.8049 0.704884L19.9974 0.754222L20.1876 0.803559L20.3789 0.856507L20.5678 0.911862L20.7555 0.969623L20.9433 1.02859L21.1298 1.09116L21.3151 1.15494L21.4992 1.22113L21.6821 1.28972L21.865 1.36072L22.0455 1.43292L22.226 1.50753L22.4041 1.58454L22.5822 1.66396L22.7591 1.74459L22.9348 1.82882L23.1081 1.91426L23.2814 2.0009L23.4535 2.08995L23.6244 2.18141L23.794 2.27527L23.9613 2.37033L24.1286 2.46781L24.2946 2.56769L24.4583 2.66877L24.6219 2.77226L24.7832 2.87695L24.9432 2.98405L25.1021 3.09235L25.2597 3.20306L25.4162 3.31617L25.5702 3.43049L25.7242 3.54602L25.8758 3.66395L26.0263 3.78308L26.1755 3.90462L26.3223 4.02856L26.4691 4.15371L26.6135 4.28007L26.7555 4.40762L26.8975 4.53759L27.0371 4.66995L27.1755 4.80353L27.3114 4.9383L27.4462 5.07428L27.5798 5.21267L27.7122 5.35226L27.8421 5.49426L27.9697 5.63625L28.096 5.78066L28.2212 5.92747L28.3451 6.07428L28.4667 6.22349L28.5858 6.37391L28.7037 6.52554L28.8193 6.67957L28.9336 6.8336L29.0467 6.99003L29.1574 7.14767L29.2657 7.30652L29.3728 7.46656L29.4775 7.62781L29.581 7.79147L29.6821 7.95513L29.7819 8.12119L29.8794 8.28846L29.9745 8.45573L30.0683 8.6254L30.1598 8.79628L30.2488 8.96836L30.3355 9.14164L30.4209 9.31492L30.5052 9.49062L30.5858 9.66751L30.6652 9.84561L30.7422 10.0237L30.8168 10.2042L30.889 10.3847L30.96 10.5676L31.0286 10.7505L31.0948 10.9346L31.1586 11.12L31.2212 11.3065L31.2801 11.4942L31.3379 11.6819L31.3932 11.8709L31.445 12.0622L31.4955 12.2523L31.5449 12.4449L31.5906 12.6374L31.6339 12.8323L31.6748 13.0261L31.7133 13.2222L31.7506 13.4184L31.7843 13.6157L31.8156 13.8143L31.8445 14.0128L31.871 14.2126L31.8963 14.4136L31.9179 14.6145L31.9372 14.8167L31.954 15.0189L31.9672 15.2222L31.9793 15.4268L31.9889 15.6314L31.9949 15.8371L31.9985 16.0429L31.9997 16.2499L31.9985 16.4557L31.9949 16.6626L31.9889 16.8672L31.9793 17.0718L31.9672 17.2764L31.954 17.4797L31.9372 17.6819L31.9179 17.8841L31.8963 18.0862L31.871 18.286L31.8445 18.4857L31.8156 18.6843L31.7843 18.8828L31.7506 19.0802L31.7133 19.2763L31.6748 19.4725L31.6339 19.6674L31.5906 19.8612L31.5449 20.0537L31.4955 20.2462L31.445 20.4376L31.3932 20.6277L31.3379 20.8166L31.2801 21.0056L31.2212 21.1921L31.1586 21.3786L31.0948 21.5639L31.0286 21.748L30.96 21.9322L30.889 22.1139L30.8168 22.2944L30.7422 22.4749L30.6652 22.6542L30.5858 22.8311L30.5052 23.008L30.4209 23.1836L30.3355 23.3581L30.2488 23.5314L30.1598 23.7023L30.0683 23.8732L29.9745 24.0428L29.8794 24.2113L29.7819 24.3774L29.6821 24.5434L29.581 24.7083L29.4775 24.8708L29.3728 25.032L29.2657 25.1921L29.1574 25.3521L29.0467 25.5085L28.9336 25.665L28.8193 25.8202L28.7037 25.973L28.5858 26.1247L28.4667 26.2751L28.3451 26.4243L28.2212 26.5723L28.096 26.7179L27.9697 26.8623L27.8421 27.0055L27.7122 27.1463L27.5798 27.2859L27.4462 27.4243L27.3114 27.5615L27.1755 27.6962L27.0371 27.8298L26.8975 27.961L26.7555 28.0909L26.6135 28.2197L26.4691 28.3461L26.3223 28.4712L26.1755 28.594L26.0263 28.7155L25.8758 28.8346L25.7242 28.9526L25.5702 29.0693L25.4162 29.1836L25.2597 29.2955L25.1021 29.4062L24.9432 29.5157L24.7832 29.6228L24.6219 29.7275L24.4583 29.831L24.2946 29.9321L24.1286 30.0308L23.9613 30.1282L23.794 30.2233L23.6244 30.3172L23.4535 30.4086L23.2814 30.4977L23.1081 30.5855L22.9348 30.671L22.7591 30.754L22.5822 30.8346L22.4041 30.914L22.226 30.991L22.0455 31.0657L21.865 31.1391L21.6821 31.2101L21.4992 31.2774L21.3151 31.3436L21.1298 31.4086L20.9433 31.47L20.7555 31.5302L20.5678 31.5867L20.3789 31.6421L20.1876 31.695L19.9974 31.7456L19.8049 31.7937L19.6124 31.8394L19.4174 31.8827L19.2237 31.9237L19.0275 31.9634L18.8314 31.9995L18.634 32.0332L18.4355 32.0644L18.2369 32.0945L18.0372 32.121L17.8362 32.1451L17.6352 32.1667L17.4331 32.186L17.2309 32.2028L17.0275 32.2173L16.823 32.2281L16.6184 32.2377L16.4126 32.2437L16.2068 32.2486L15.9999 32.2498L15.7941 32.2486L15.5871 32.2437L15.3825 32.2377L15.178 32.2281L14.9734 32.2173L14.77 32.2028L14.5679 32.186L14.3657 32.1667L14.1635 32.1451L13.9638 32.121L13.764 32.0945L13.5655 32.0644L13.3669 32.0332L13.1696 31.9995L12.9734 31.9634L12.7773 31.9237L12.5823 31.8827L12.3886 31.8394L12.196 31.7937L12.0035 31.7456L11.8122 31.695L11.622 31.6421L11.4331 31.5867L11.2442 31.5302L11.0577 31.47L10.8711 31.4086L10.6858 31.3436L10.5017 31.2774L10.3176 31.2101L10.1359 31.1391L9.95539 31.0657L9.77488 30.991L9.59558 30.914L9.41869 30.8346L9.24179 30.754L9.0661 30.671L8.89162 30.5855L8.71833 30.4977L8.54746 30.4086L8.37658 30.3172L8.20691 30.2233L8.03844 30.1282L7.87237 30.0308L7.70631 29.9321L7.54145 29.831L7.37899 29.7275L7.21774 29.6228L7.0577 29.5157L6.89765 29.4062L6.74121 29.2955L6.58478 29.1836L6.42954 29.0693L6.27672 28.9526L6.12509 28.8346L5.97467 28.7155L5.82546 28.594L5.67744 28.4712L5.53184 28.3461L5.38743 28.2197L5.24423 28.0909L5.10344 27.961L4.96385 27.8298L4.82546 27.6962L4.68828 27.5615L4.5535 27.4243L4.41993 27.2859L4.28877 27.1463L4.1588 27.0055L4.03004 26.8623L3.90369 26.7179L3.77854 26.5723L3.6558 26.4243L3.53426 26.2751L3.41513 26.1247L3.2972 25.973L3.18047 25.8202L3.06615 25.665L2.95424 25.5085L2.84353 25.3521L2.73402 25.1921L2.62693 25.032L2.52223 24.8708L2.41874 24.7083L2.31766 24.5434L2.21899 24.3774L2.12151 24.2113L2.02645 24.0428L1.93259 23.8732L1.84113 23.7023L1.75208 23.5314L1.66424 23.3581L1.5788 23.1836L1.49577 23.008L1.41514 22.8311L1.33572 22.6542L1.2587 22.4749L1.1841 22.2944L1.11069 22.1139L1.03969 21.9322L0.972305 21.748L0.906121 21.5639L0.841139 21.3786L0.779768 21.1921L0.7196 21.0056L0.663042 20.8166L0.607687 20.6277L0.554739 20.4376L0.504198 20.2462L0.456064 20.0537L0.410336 19.8612L0.367015 19.6674L0.326101 19.4725L0.28639 19.2763L0.250289 19.0802L0.216595 18.8828L0.185308 18.6843L0.155224 18.4857L0.12875 18.286L0.104683 18.0862L0.0830223 17.8841L0.0637685 17.6819L0.0469215 17.4797L0.0324812 17.2764L0.021651 17.0718L0.0120241 16.8672L0.00600726 16.6626L0.00119381 16.4557L-9.53674e-06 16.2499L0.00119381 16.0429L0.00600726 15.8371L0.0120241 15.6314L0.021651 15.4268L0.0324812 15.2222L0.0469215 15.0189L0.0637685 14.8167L0.0830223 14.6145L0.104683 14.4136L0.12875 14.2126L0.155224 14.0128L0.185308 13.8143L0.216595 13.6157L0.250289 13.4184L0.28639 13.2222L0.326101 13.0261L0.367015 12.8323L0.410336 12.6374L0.456064 12.4449L0.504198 12.2523L0.554739 12.0622L0.607687 11.8709L0.663042 11.6819L0.7196 11.4942L0.779768 11.3065L0.841139 11.12L0.906121 10.9346L0.972305 10.7505L1.03969 10.5676L1.11069 10.3847L1.1841 10.2042L1.2587 10.0237L1.33572 9.84561L1.41514 9.66751L1.49577 9.49062L1.5788 9.31492L1.66424 9.14164L1.75208 8.96836L1.84113 8.79628L1.93259 8.6254L2.02645 8.45573L2.12151 8.28846L2.21899 8.12119L2.31766 7.95513L2.41874 7.79147L2.52223 7.62781L2.62693 7.46656L2.73402 7.30652L2.84353 7.14767L2.95424 6.99003L3.06615 6.8336L3.18047 6.67957L3.2972 6.52554L3.41513 6.37391L3.53426 6.22349L3.6558 6.07428L3.77854 5.92747L3.90369 5.78066L4.03004 5.63625L4.1588 5.49426L4.28877 5.35226L4.41993 5.21267L4.5535 5.07428L4.68828 4.9383L4.82546 4.80353L4.96385 4.66995L5.10344 4.53759L5.24423 4.40762L5.38743 4.28007L5.53184 4.15371L5.67744 4.02856L5.82546 3.90462L5.97467 3.78308L6.12509 3.66395L6.27672 3.54602L6.42954 3.43049L6.58478 3.31617L6.74121 3.20306L6.89765 3.09235L7.0577 2.98405L7.21774 2.87695L7.37899 2.77226L7.54145 2.66877L7.70631 2.56769L7.87237 2.46781L8.03844 2.37033L8.20691 2.27527L8.37658 2.18141L8.54746 2.08995L8.71833 2.0009L8.89162 1.91426L9.0661 1.82882L9.24179 1.74459L9.41869 1.66396L9.59558 1.58454L9.77488 1.50753L9.95539 1.43292L10.1359 1.36072L10.3176 1.28972L10.5017 1.22113L10.6858 1.15494L10.8711 1.09116L11.0577 1.02859L11.2442 0.969623L11.4331 0.911862L11.622 0.856507L11.8122 0.803559L12.0035 0.754222L12.196 0.704884L12.3886 0.659156L12.5823 0.615835L12.7773 0.574921L12.9734 0.536414L13.1696 0.499109L13.3669 0.465415L13.5655 0.434128L13.764 0.405247L13.9638 0.378773L14.1635 0.353503L14.3657 0.331842L14.5679 0.312589L14.77 0.295742L14.9734 0.282505L15.178 0.270471L15.3825 0.260844L15.5871 0.254827L15.7941 0.251217L15.9999 0.250014L16.2068 0.251217ZM15.8061 1.25121L15.6124 1.25482L15.4198 1.26084L15.2285 1.26926L15.0372 1.28009L14.8458 1.29333L14.6557 1.30897L14.4668 1.32702L14.2779 1.34748L14.0901 1.37034L13.9024 1.39561L13.7159 1.42209L13.5306 1.45217L13.3453 1.48346L13.1611 1.51836L12.9782 1.55446L12.7953 1.59296L12.6136 1.63388L12.4331 1.6772L12.2526 1.72172L12.0733 1.76986L11.8952 1.8192L11.7183 1.87094L11.5414 1.92389L11.3657 1.98045L11.1912 2.03821L11.018 2.09837L10.8459 2.15975L10.6738 2.22473L10.5029 2.29091L10.3332 2.3583L10.1648 2.4281L9.9975 2.5003L9.83024 2.57491L9.66538 2.65072L9.50052 2.72894L9.33686 2.80956L9.17441 2.89139L9.01436 2.97442L8.85431 3.06106L8.69547 3.1477L8.53783 3.23796L8.38139 3.32821L8.22616 3.42207L8.07213 3.51714L7.9193 3.6134L7.76768 3.71208L7.61726 3.81196L7.46804 3.91424L7.32003 4.01773L7.17442 4.12363L7.02882 4.23073L6.88441 4.33903L6.74242 4.44974L6.60162 4.56286L6.46203 4.67597L6.32365 4.79149L6.18646 4.90942L6.05169 5.02735L5.91691 5.14769L5.78454 5.27043L5.65338 5.39317L5.52341 5.51832L5.39586 5.64468L5.2695 5.77344L5.14435 5.9034L5.02041 6.03336L4.89887 6.16694L4.77853 6.30051L4.6594 6.43649L4.54267 6.57247L4.42715 6.71085L4.31283 6.85044L4.20092 6.99124L4.09021 7.13444L3.98191 7.27764L3.87481 7.42324L3.76891 7.57005L3.66542 7.71686L3.56314 7.86608L3.46326 8.0165L3.36458 8.16812L3.26711 8.32095L3.17205 8.47498L3.07939 8.63021L2.98793 8.78665L2.89888 8.94429L2.81104 9.10313L2.7256 9.26318L2.64137 9.42443L2.55954 9.58688L2.48012 9.74934L2.4019 9.9142L2.32609 10.0803L2.25148 10.2463L2.17928 10.4136L2.10948 10.5821L2.04089 10.7517L1.9747 10.9226L1.91093 11.0947L1.84835 11.2668L1.78818 11.4413L1.73042 11.6157L1.67507 11.7914L1.62092 11.9671L1.56917 12.1452L1.51983 12.3233L1.4729 12.5026L1.42718 12.6819L1.38506 12.8636L1.34414 13.0453L1.30564 13.227L1.26833 13.4112L1.23464 13.5953L1.20335 13.7794L1.17327 13.9659L1.14559 14.1524L1.12152 14.339L1.09866 14.5267L1.0782 14.7156L1.06015 14.9045L1.04451 15.0947L1.03127 15.286L1.02044 15.4773L1.01081 15.6699L1.0048 15.8624L1.00119 16.0549L0.999983 16.2499L1.00119 16.4436L1.0048 16.6374L1.01081 16.8299L1.02044 17.0212L1.03127 17.2126L1.04451 17.4039L1.06015 17.594L1.0782 17.783L1.09866 17.9719L1.12152 18.1596L1.14559 18.3473L1.17327 18.5339L1.20335 18.7192L1.23464 18.9045L1.26833 19.0886L1.30564 19.2715L1.34414 19.4544L1.38506 19.6361L1.42718 19.8166L1.4729 19.9972L1.51983 20.1765L1.56917 20.3545L1.62092 20.5314L1.67507 20.7083L1.73042 20.884L1.78818 21.0585L1.84835 21.2318L1.91093 21.4039L1.9747 21.576L2.04089 21.7468L2.10948 21.9165L2.17928 22.085L2.25148 22.2522L2.32609 22.4195L2.4019 22.5844L2.48012 22.7492L2.55954 22.9129L2.64137 23.0753L2.7256 23.2354L2.81104 23.3954L2.89888 23.5543L2.98793 23.7119L3.07939 23.8684L3.17205 24.0236L3.26711 24.1776L3.36458 24.3304L3.46326 24.4821L3.56314 24.6325L3.66542 24.7817L3.76891 24.9297L3.87481 25.0753L3.98191 25.2209L4.09021 25.3653L4.20092 25.5073L4.31283 25.6481L4.42715 25.7877L4.54267 25.9261L4.6594 26.0633L4.77853 26.1981L4.89887 26.3328L5.02041 26.4652L5.14435 26.5964L5.2695 26.7263L5.39586 26.8539L5.52341 26.9802L5.65338 27.1054L5.78454 27.2293L5.91691 27.3509L6.05169 27.4712L6.18646 27.5904L6.32365 27.7071L6.46203 27.8226L6.60162 27.9369L6.74242 28.0488L6.88441 28.1595L7.02882 28.2678L7.17442 28.3749L7.32003 28.4808L7.46804 28.5843L7.61726 28.6866L7.76768 28.7865L7.9193 28.8852L8.07213 28.9826L8.22616 29.0777L8.38139 29.1704L8.53783 29.2618L8.69547 29.3509L8.85431 29.4387L9.01436 29.5242L9.17441 29.6084L9.33686 29.6902L9.50052 29.7696L9.66538 29.8479L9.83024 29.9237L9.9975 29.9983L10.1648 30.0705L10.3332 30.1403L10.5029 30.2089L10.6738 30.275L10.8459 30.3388L11.018 30.4014L11.1912 30.4616L11.3657 30.5193L11.5414 30.5747L11.7183 30.6288L11.8952 30.6806L12.0733 30.7299L12.2526 30.7768L12.4331 30.8226L12.6136 30.8647L12.7953 30.9056L12.9782 30.9441L13.1611 30.9814L13.3453 31.0151L13.5306 31.0464L13.7159 31.0765L13.9024 31.1042L14.0901 31.1282L14.2779 31.1511L14.4668 31.1716L14.6557 31.1896L14.8458 31.2052L15.0372 31.2185L15.2285 31.2293L15.4198 31.2389L15.6124 31.245L15.8061 31.2486L15.9999 31.2498L16.1948 31.2486L16.3873 31.245L16.5799 31.2389L16.7724 31.2293L16.9638 31.2185L17.1551 31.2052L17.3452 31.1896L17.5341 31.1716L17.7231 31.1511L17.9108 31.1282L18.0973 31.1042L18.2838 31.0765L18.4704 31.0464L18.6545 31.0151L18.8386 30.9814L19.0227 30.9441L19.2044 30.9056L19.3861 30.8647L19.5678 30.8226L19.7471 30.7768L19.9264 30.7299L20.1045 30.6806L20.2826 30.6288L20.4583 30.5747L20.634 30.5193L20.8085 30.4616L20.983 30.4014L21.1551 30.3388L21.3271 30.275L21.498 30.2089L21.6677 30.1403L21.8362 30.0705L22.0034 29.9983L22.1695 29.9237L22.3356 29.8479L22.5004 29.7696L22.6629 29.6902L22.8253 29.6084L22.9866 29.5242L23.1466 29.4387L23.3055 29.3509L23.4631 29.2618L23.6195 29.1704L23.7748 29.0777L23.9288 28.9826L24.0816 28.8852L24.2333 28.7865L24.3837 28.6866L24.5329 28.5843L24.6797 28.4808L24.8265 28.3749L24.9721 28.2678L25.1153 28.1595L25.2585 28.0488L25.3993 27.9369L25.5389 27.8226L25.6773 27.7071L25.8133 27.5904L25.9492 27.4712L26.0828 27.3509L26.2164 27.2293L26.3464 27.1054L26.4763 26.9802L26.6051 26.8539L26.7314 26.7263L26.8566 26.5964L26.9793 26.4652L27.1021 26.3328L27.2224 26.1981L27.3403 26.0633L27.4583 25.9261L27.5738 25.7877L27.6869 25.6481L27.8 25.5073L27.9107 25.3653L28.019 25.2209L28.1261 25.0753L28.232 24.9297L28.3355 24.7817L28.4378 24.6325L28.5377 24.4821L28.6363 24.3304L28.7326 24.1776L28.8277 24.0236L28.9215 23.8684L29.0118 23.7119L29.102 23.5543L29.1887 23.3954L29.2753 23.2354L29.3584 23.0753L29.4402 22.9129L29.5208 22.7492L29.599 22.5844L29.6748 22.4195L29.7495 22.2522L29.8217 22.085L29.8915 21.9165L29.9588 21.7468L30.025 21.576L30.09 21.4039L30.1514 21.2318L30.2115 21.0585L30.2693 20.884L30.3259 20.7083L30.3788 20.5314L30.4306 20.3545L30.4799 20.1765L30.528 19.9972L30.5726 19.8166L30.6159 19.6361L30.6568 19.4544L30.6953 19.2715L30.7314 19.0886L30.7663 18.9045L30.7976 18.7192L30.8277 18.5339L30.8541 18.3473L30.8794 18.1596L30.9023 17.9719L30.9227 17.783L30.9408 17.594L30.9564 17.4039L30.9697 17.2126L30.9805 17.0212L30.9889 16.8299L30.9949 16.6374L30.9985 16.4436L30.9997 16.2499L30.9985 16.0549L30.9949 15.8624L30.9889 15.6699L30.9805 15.4773L30.9697 15.286L30.9564 15.0947L30.9408 14.9045L30.9227 14.7156L30.9023 14.5267L30.8794 14.339L30.8541 14.1524L30.8277 13.9659L30.7976 13.7794L30.7663 13.5953L30.7314 13.4112L30.6953 13.227L30.6568 13.0453L30.6159 12.8636L30.5726 12.6819L30.528 12.5026L30.4799 12.3233L30.4306 12.1452L30.3788 11.9671L30.3259 11.7914L30.2693 11.6157L30.2115 11.4413L30.1514 11.2668L30.09 11.0947L30.025 10.9226L29.9588 10.7517L29.8915 10.5821L29.8217 10.4136L29.7495 10.2463L29.6748 10.0803L29.599 9.9142L29.5208 9.74934L29.4402 9.58688L29.3584 9.42443L29.2753 9.26318L29.1887 9.10313L29.102 8.94429L29.0118 8.78665L28.9215 8.63021L28.8277 8.47498L28.7326 8.32095L28.6363 8.16812L28.5377 8.0165L28.4378 7.86608L28.3355 7.71686L28.232 7.57005L28.1261 7.42324L28.019 7.27764L27.9107 7.13444L27.8 6.99124L27.6869 6.85044L27.5738 6.71085L27.4583 6.57247L27.3403 6.43649L27.2224 6.30051L27.1021 6.16694L26.9793 6.03336L26.8566 5.9034L26.7314 5.77344L26.6051 5.64468L26.4763 5.51832L26.3464 5.39317L26.2164 5.27043L26.0828 5.14769L25.9492 5.02735L25.8133 4.90942L25.6773 4.79149L25.5389 4.67597L25.3993 4.56286L25.2573 4.44974L25.1153 4.33903L24.9721 4.23073L24.8265 4.12363L24.6797 4.01773L24.5329 3.91424L24.3837 3.81196L24.2333 3.71208L24.0816 3.6134L23.9288 3.51714L23.7748 3.42207L23.6195 3.32821L23.4631 3.23796L23.3055 3.1477L23.1466 3.06106L22.9866 2.97442L22.8253 2.89139L22.6629 2.80956L22.5004 2.72894L22.3356 2.65072L22.1695 2.57491L22.0034 2.5003L21.8362 2.4281L21.6677 2.3583L21.498 2.29091L21.3271 2.22473L21.1551 2.15975L20.983 2.09837L20.8085 2.03821L20.634 1.98045L20.4583 1.92389L20.2826 1.87094L20.1045 1.8192L19.9264 1.76986L19.7471 1.72172L19.5678 1.6772L19.3861 1.63388L19.2044 1.59296L19.0227 1.55446L18.8386 1.51836L18.6545 1.48346L18.4704 1.45217L18.2838 1.42209L18.0973 1.39561L17.9108 1.37034L17.7231 1.34748L17.5341 1.32702L17.3452 1.30897L17.1551 1.29333L16.9638 1.28009L16.7724 1.26926L16.5799 1.26084L16.3873 1.25482L16.1948 1.25121L15.9999 1.25001L15.8061 1.25121Z" fill="#666D89"/>
<path d="M23 11.6704C22.4846 11.9115 21.9313 12.0742 21.3501 12.1475C21.9435 11.7726 22.3988 11.1788 22.6133 10.4715C22.0582 10.8185 21.4434 11.0708 20.7894 11.2066C20.2653 10.6177 19.5187 10.25 18.6927 10.25C17.1065 10.25 15.8204 11.6063 15.8204 13.2792C15.8204 13.5167 15.8457 13.7479 15.8949 13.9695C13.5078 13.8433 11.3908 12.6372 9.97452 10.8043C9.72724 11.252 9.58557 11.7723 9.58557 12.3275C9.58557 13.3784 10.0926 14.3054 10.8632 14.8489C10.3927 14.8331 9.94957 14.697 9.56228 14.4701C9.56198 14.4826 9.56198 14.4953 9.56198 14.5081C9.56198 15.9759 10.5523 17.2003 11.866 17.4784C11.6253 17.5478 11.3715 17.585 11.1093 17.585C10.9244 17.585 10.7447 17.5659 10.5691 17.5306C10.9346 18.734 11.9957 19.61 13.2522 19.6342C12.269 20.447 11.0309 20.9312 9.68509 20.9312C9.45333 20.9312 9.22476 20.9168 9 20.8885C10.271 21.7483 11.7804 22.25 13.403 22.25C18.6859 22.25 21.5752 17.6336 21.5752 13.6304C21.5752 13.4994 21.5725 13.3686 21.5668 13.2384C22.1281 12.8115 22.6149 12.278 23 11.6704Z" fill="#666D89"/>
</g>
<defs>
<clipPath id="clip0">
<rect width="32" height="32" fill="white" transform="translate(0 0.25)"/>
</clipPath>
</defs>
</svg>
